<svg xmlns="http://www.w3.org/2000/svg" viewBox="-24 -42 422 432">
  <path fill="#21171c"
    d="M374.978 187.5c0 103.544-83.933 187.5-187.5 187.5C83.934 375 0 291.044 0 187.5S83.934 0 187.478 0c103.567 0 187.5 83.956 187.5 187.5" />
  <path fill="#fff"
    d="m197.742 198.096.728-.364c4.475-2.27 8.774-3.505 12.103-3.505 2.668 0 4.708.771 6.086 2.315 1.532 1.73 2.116 4.365 1.72 7.815-2.536 21.331-23.713 41.504-42.331 51.238-21.496 11.21-45.462 13.691-50.268 14.077-.286.022-.551.044-.86.044.408-.661 31.947-51.502 72.822-71.62m49.11-121.403c-7.694 25.178-26.655 41.317-41.162 51.668-3.836 2.745-.044 4.795.055 8.686.132 4.829-8.598 10.848-21.893 25.366 25.399-49.1 63-85.72 63-85.72M121.68 276.275c.044 0 .926-.01 2.48-.11h.012c7.826-.463 32.905-2.767 58.833-14.11 13.647-5.986 52.472-28.53 52.472-58.833 0-11.476-6.978-18.057-18.884-18.057-18.111 0-40.004 14.596-64.454 40.027-.629.794-1.764.231 1.388-4.895 6.097-9.943 19.975-35.32 50.312-65.182 17.726-17.461 8.698-24.142 8.698-24.142s17.913-8.234 31.406-25.773c8.07-10.505 18.299-31.108 13.834-36.708-3.681-4.663-11.255-2.304-28.187 12.61-21.055 18.542-52.946 72.558-70.253 104.956-4.288 8.003-29.19 51.061-46.905 81.619-3.142-1.092-6.515-2.745-9.988-5.203l-2.16 3.803c1.785 1.863 5.104 4.332 9.292 6.327-8.565 14.805-14.903 25.663-15.278 26.325-1.18 2.05-.088 2.932 1.223 2.348 1.632-.728 3.186-1.4 4.663-2.029 11.939-5.159 14.43-7.308 15.29-12.291 1.576-9.072 6.206-10.682 6.206-10.682M117.18 297.857l-2.127 3.593h143.814l2.105-3.593z" />
  <symbol id="a" transform="translate(-574.489 -383.81)" viewBox="0 0 112 119">
    <image width="112" height="119" />
  </symbol>
</svg>