<svg width="16" height="16" viewBox="0 0 16 16" fill="none" xmlns="http://www.w3.org/2000/svg">
<path d="M7.99967 14.6666C4.31777 14.6666 1.33301 11.6818 1.33301 7.99992C1.33301 4.31802 4.31777 1.33325 7.99967 1.33325C11.6815 1.33325 14.6663 4.31802 14.6663 7.99992C14.6663 11.6818 11.6815 14.6666 7.99967 14.6666ZM7.99967 13.3333C10.9452 13.3333 13.333 10.9455 13.333 7.99992C13.333 5.0544 10.9452 2.66659 7.99967 2.66659C5.05415 2.66659 2.66634 5.0544 2.66634 7.99992C2.66634 10.9455 5.05415 13.3333 7.99967 13.3333ZM7.33301 9.99992H8.66634V11.3333H7.33301V9.99992ZM7.33301 4.66658H8.66634V8.66658H7.33301V4.66658Z" fill="#D36582"/>
</svg>
