<svg width="20" height="20" viewBox="0 0 20 20" fill="none" xmlns="http://www.w3.org/2000/svg">
<path d="M7.78524 15.6515L6.17537 15.2201L6.83159 12.7711C5.84067 12.4061 4.93018 11.8748 4.13398 11.2111L2.33953 13.0055L1.16103 11.827L2.95547 10.0326C1.96285 8.84184 1.26646 7.39547 0.979492 5.80674L2.61956 5.50854C3.25208 9.01042 6.31577 11.6667 9.99984 11.6667C13.6839 11.6667 16.7477 9.01042 17.3802 5.50854L19.0203 5.80674C18.7333 7.39547 18.0368 8.84184 17.0443 10.0326L18.8387 11.827L17.6602 13.0055L15.8658 11.2111C15.0695 11.8748 14.159 12.4061 13.1681 12.7711L13.8243 15.2201L12.2145 15.6515L11.558 13.2014C11.0516 13.2882 10.531 13.3333 9.99984 13.3333C9.46876 13.3333 8.94809 13.2882 8.44176 13.2014L7.78524 15.6515Z" fill="black"/>
</svg>
