<?xml version="1.0" ?><svg height="20" id="svg8" version="1.1" viewBox="0 0 4.7624999 5.2916668" width="18" xmlns="http://www.w3.org/2000/svg" xmlns:cc="http://creativecommons.org/ns#" xmlns:dc="http://purl.org/dc/elements/1.1/" xmlns:rdf="http://www.w3.org/1999/02/22-rdf-syntax-ns#" xmlns:svg="http://www.w3.org/2000/svg"><defs id="defs2"/><g id="layer10" transform="translate(-52.387502,-17.462496)"><g id="FLAT-9"><g id="g138" style="display:inline;stroke-width:0.75" transform="matrix(1.3333331,0,0,1.3333331,-18.256238,-370.8645)"><path d="m 207,66 c -3.85416,0 -7,3.145912 -7,7 0,1.831024 0.84184,3.382764 1.99805,4.630859 C 199.6177,79.249924 198,81.910823 198,85 a 1.0001,1.0001 0 0 0 1,1 h 16 a 1.0001,1.0001 0 0 0 1,-1 c 0,-3.089177 -1.6177,-5.750076 -3.99805,-7.369141 C 213.15816,76.382764 214,74.831024 214,73 c 0,-3.85409 -3.14584,-7 -7,-7 z" id="path1195" style="color:#000000;font-style:normal;font-variant:normal;font-weight:normal;font-stretch:normal;font-size:medium;line-height:normal;font-family:sans-serif;font-variant-ligatures:normal;font-variant-position:normal;font-variant-caps:normal;font-variant-numeric:normal;font-variant-alternates:normal;font-variant-east-asian:normal;font-feature-settings:normal;font-variation-settings:normal;text-indent:0;text-align:start;text-decoration:none;text-decoration-line:none;text-decoration-style:solid;text-decoration-color:#000000;letter-spacing:normal;word-spacing:normal;text-transform:none;writing-mode:lr-tb;direction:ltr;text-orientation:mixed;dominant-baseline:auto;baseline-shift:baseline;text-anchor:start;white-space:normal;shape-padding:0;shape-margin:0;inline-size:0;clip-rule:nonzero;display:inline;overflow:visible;visibility:visible;opacity:1;isolation:auto;mix-blend-mode:normal;color-interpolation:sRGB;color-interpolation-filters:linearRGB;solid-color:#000000;solid-opacity:1;vector-effect:none;fill:#82bbfb;fill-opacity:1;fill-rule:nonzero;stroke:none;stroke-width:2;stroke-linecap:round;stroke-linejoin:round;stroke-miterlimit:4;stroke-dasharray:none;stroke-dashoffset:0;stroke-opacity:1;color-rendering:auto;image-rendering:auto;shape-rendering:auto;text-rendering:auto;enable-background:accumulate;stop-color:#000000;stop-opacity:1" transform="matrix(0.19843754,0,0,0.19843754,13.692181,278.14842)"/></g><g id="g1414" style="display:inline;stroke-width:0.75" transform="matrix(1.3333331,0,0,1.3333331,-18.256238,-370.8645)"><path d="m 214.42773,80.039062 a 17.202391,32.202391 69.881832 0 1 -1.51171,0.574219 17.202391,32.202391 69.881832 0 1 -14.84571,3.306641 C 198.02611,84.273713 198,84.633098 198,85 a 1.0001,1.0001 0 0 0 1,1 h 16 a 1.0001,1.0001 0 0 0 1,-1 c 0,-1.854088 -0.59166,-3.548056 -1.57227,-4.960938 z" id="path1412" style="color:#000000;font-style:normal;font-variant:normal;font-weight:normal;font-stretch:normal;font-size:medium;line-height:normal;font-family:sans-serif;font-variant-ligatures:normal;font-variant-position:normal;font-variant-caps:normal;font-variant-numeric:normal;font-variant-alternates:normal;font-variant-east-asian:normal;font-feature-settings:normal;font-variation-settings:normal;text-indent:0;text-align:start;text-decoration:none;text-decoration-line:none;text-decoration-style:solid;text-decoration-color:#000000;letter-spacing:normal;word-spacing:normal;text-transform:none;writing-mode:lr-tb;direction:ltr;text-orientation:mixed;dominant-baseline:auto;baseline-shift:baseline;text-anchor:start;white-space:normal;shape-padding:0;shape-margin:0;inline-size:0;clip-rule:nonzero;display:inline;overflow:visible;visibility:visible;opacity:1;isolation:auto;mix-blend-mode:normal;color-interpolation:sRGB;color-interpolation-filters:linearRGB;solid-color:#000000;solid-opacity:1;vector-effect:none;fill:#65a3fc;fill-opacity:1;fill-rule:nonzero;stroke:none;stroke-width:2;stroke-linecap:round;stroke-linejoin:round;stroke-miterlimit:4;stroke-dasharray:none;stroke-dashoffset:0;stroke-opacity:1;color-rendering:auto;image-rendering:auto;shape-rendering:auto;text-rendering:auto;enable-background:accumulate;stop-color:#000000;stop-opacity:1" transform="matrix(0.19843754,0,0,0.19843754,13.692181,278.14842)"/></g></g></g></svg>