<svg viewBox="0 0 22 22" fill="none" xmlns="http://www.w3.org/2000/svg">
<g opacity="0.9">
<path d="M12.8334 13.0647V14.9799C12.2599 14.7773 11.6429 14.667 11 14.667C7.96245 14.667 5.50002 17.1294 5.50002 20.167H3.66669C3.66669 16.1169 6.94993 12.8337 11 12.8337C11.6331 12.8337 12.2474 12.9139 12.8334 13.0647ZM11 11.917C7.96127 11.917 5.50002 9.45574 5.50002 6.41699C5.50002 3.37824 7.96127 0.916992 11 0.916992C14.0388 0.916992 16.5 3.37824 16.5 6.41699C16.5 9.45574 14.0388 11.917 11 11.917ZM11 10.0837C13.0259 10.0837 14.6667 8.44283 14.6667 6.41699C14.6667 4.39116 13.0259 2.75033 11 2.75033C8.97419 2.75033 7.33335 4.39116 7.33335 6.41699C7.33335 8.44283 8.97419 10.0837 11 10.0837ZM16.5 15.5837V12.8337H18.3334V15.5837H21.0834V17.417H18.3334V20.167H16.5V17.417H13.75V15.5837H16.5Z" fill="#FBFBFB"/>
</g>
</svg>
