<svg width="20" height="20" viewBox="0 0 20 20" fill="none" xmlns="http://www.w3.org/2000/svg">
<path d="M10.0013 1.66675C5.39714 1.66675 1.66797 5.39591 1.66797 10.0001C1.66797 13.6876 4.05339 16.8022 7.36589 17.9063C7.78255 17.9792 7.9388 17.7292 7.9388 17.5105C7.9388 17.3126 7.92839 16.6563 7.92839 15.9584C5.83464 16.3438 5.29297 15.448 5.1263 14.9792C5.03255 14.7397 4.6263 14.0001 4.27214 13.8022C3.98047 13.6459 3.5638 13.2605 4.26172 13.2501C4.91797 13.2397 5.38672 13.8542 5.54297 14.1042C6.29297 15.3647 7.49089 15.0105 7.97005 14.7917C8.04297 14.2501 8.26172 13.8855 8.50132 13.6772C6.64714 13.4688 4.70964 12.7501 4.70964 9.56258C4.70964 8.65633 5.03255 7.90633 5.5638 7.323C5.48047 7.11467 5.1888 6.2605 5.64714 5.11466C5.64714 5.11466 6.34505 4.89591 7.9388 5.96883C8.60549 5.78133 9.31382 5.68758 10.0222 5.68758C10.7305 5.68758 11.4388 5.78133 12.1055 5.96883C13.6992 4.8855 14.3972 5.11466 14.3972 5.11466C14.8555 6.2605 14.5638 7.11467 14.4805 7.323C15.0117 7.90633 15.3347 8.64592 15.3347 9.56258C15.3347 12.7605 13.3867 13.4688 11.5326 13.6772C11.8347 13.9376 12.0951 14.4376 12.0951 15.2188C12.0951 16.3334 12.0847 17.2292 12.0847 17.5105C12.0847 17.7292 12.2409 17.9897 12.6576 17.9063C16.0497 16.7612 18.3337 13.5803 18.3347 10.0001C18.3347 5.39591 14.6055 1.66675 10.0013 1.66675Z" fill="white"/>
</svg>
