<svg width="28" height="25" viewBox="0 0 28 25" fill="none" xmlns="http://www.w3.org/2000/svg">
<path d="M14.0014 2.03804C17.1334 -0.773332 21.9734 -0.679999 24.9902 2.34315C28.0071 5.36629 28.1107 10.1827 25.3048 13.324L13.9999 24.6467L2.69519 13.324C-0.110582 10.1827 -0.00570202 5.35868 3.00983 2.34315C6.02878 -0.675799 10.8603 -0.777506 14.0014 2.03804ZM23.1027 4.2268C21.1039 2.22392 17.8768 2.14268 15.7827 4.02249L14.0026 5.62032L12.2215 4.02375C10.1213 2.14129 6.9001 2.22411 4.89544 4.22876C2.90912 6.21508 2.8094 9.3964 4.63992 11.4976L13.9999 20.8724L23.3602 11.4976C25.1914 9.3956 25.092 6.22033 23.1027 4.2268Z" fill="#484848"/>
</svg>
