<svg width="22" height="6" viewBox="0 0 22 6" fill="none" xmlns="http://www.w3.org/2000/svg">
<path d="M2.83333 0.666016C1.55 0.666016 0.5 1.71602 0.5 2.99935C0.5 4.28268 1.55 5.33268 2.83333 5.33268C4.11667 5.33268 5.16667 4.28268 5.16667 2.99935C5.16667 1.71602 4.11667 0.666016 2.83333 0.666016ZM19.1667 0.666016C17.8833 0.666016 16.8333 1.71602 16.8333 2.99935C16.8333 4.28268 17.8833 5.33268 19.1667 5.33268C20.45 5.33268 21.5 4.28268 21.5 2.99935C21.5 1.71602 20.45 0.666016 19.1667 0.666016ZM11 0.666016C9.71667 0.666016 8.66667 1.71602 8.66667 2.99935C8.66667 4.28268 9.71667 5.33268 11 5.33268C12.2833 5.33268 13.3333 4.28268 13.3333 2.99935C13.3333 1.71602 12.2833 0.666016 11 0.666016Z" fill="black"/>
</svg>
