<svg width="22" height="22" viewBox="0 0 22 22" fill="none" xmlns="http://www.w3.org/2000/svg">
<path d="M15.5225 8.21851C15.0572 4.61664 11.9785 1.83398 8.24999 1.83398C4.1999 1.83398 0.916656 5.11723 0.916656 9.16732C0.916656 10.902 1.51897 12.496 2.52586 13.7517C3.26654 14.6753 3.66696 15.6988 3.66689 16.7812L3.66666 20.1673H11.9167L11.9176 17.4173H13.75C14.7625 17.4173 15.5833 16.5965 15.5833 15.584V12.8991L17.3793 12.1297C17.6939 11.995 17.7214 11.676 17.5855 11.4624L15.5225 8.21851ZM2.74999 9.16732C2.74999 6.12975 5.21242 3.66732 8.24999 3.66732C11.0223 3.66732 13.3526 5.73111 13.7042 8.4534L13.7566 8.85805L15.1705 11.0814L13.75 11.6899V15.584H10.0849L10.084 18.334H5.50011L5.50022 16.7814C5.50032 15.2789 4.95884 13.8552 3.95612 12.6047C3.17915 11.6358 2.74999 10.4368 2.74999 9.16732ZM19.3907 16.5945L17.8652 15.5775C18.74 14.2678 19.25 12.6938 19.25 11.0007C19.25 9.30757 18.74 7.73356 17.8652 6.42394L19.3907 5.40689C20.46 7.00752 21.0833 8.93131 21.0833 11.0007C21.0833 13.0701 20.46 14.9938 19.3907 16.5945Z" fill="#484848"/>
</svg>
