<svg width="20" height="20" viewBox="0 0 20 20" fill="none" xmlns="http://www.w3.org/2000/svg">
<path d="M2.78288 14.1664C2.42267 13.5425 2.15231 12.8914 1.96777 12.228C2.77817 11.8145 3.3331 10.9719 3.3331 9.99976C3.3331 9.02834 2.779 8.18626 1.96961 7.77243C2.34187 6.43002 3.04881 5.17982 4.05395 4.15793C4.81725 4.65306 5.82446 4.71238 6.66643 4.22626C7.50841 3.74014 7.96064 2.83822 7.9135 1.92963C9.30108 1.57009 10.7372 1.58296 12.0859 1.93178C12.0396 2.83964 12.4917 3.74053 13.3331 4.22626C14.1751 4.71236 15.1822 4.65306 15.9455 4.15798C16.4277 4.64948 16.8564 5.20918 17.2167 5.8331C17.5768 6.45701 17.8472 7.10813 18.0317 7.77149C17.2213 8.18498 16.6664 9.02759 16.6664 9.99976C16.6664 10.9713 17.2205 11.8133 18.0299 12.2271C17.6577 13.5695 16.9507 14.8197 15.9456 15.8416C15.1822 15.3465 14.1751 15.2872 13.3331 15.7733C12.4911 16.2593 12.0389 17.1613 12.086 18.0699C10.6985 18.4294 9.26233 18.4166 7.91361 18.0678C7.95992 17.1598 7.50774 16.259 6.66643 15.7733C5.82448 15.2872 4.81732 15.3464 4.05403 15.8415C3.57181 15.35 3.1431 14.7903 2.78288 14.1664ZM7.49976 14.3299C8.40925 14.855 9.06242 15.6852 9.37525 16.6378C9.7905 16.6773 10.2085 16.6779 10.6238 16.6392C10.9365 15.686 11.5898 14.8553 12.4997 14.3299C13.4097 13.8045 14.4558 13.6542 15.4377 13.8599C15.6788 13.5196 15.8873 13.1573 16.0607 12.7779C15.3922 12.0307 14.9997 11.0499 14.9997 9.99976C14.9997 8.94959 15.3922 7.96893 16.0607 7.22168C15.974 7.03334 15.8782 6.84811 15.7732 6.66643C15.6683 6.48475 15.5558 6.30916 15.4361 6.13994C14.4547 6.34523 13.4092 6.19471 12.4997 5.66963C11.5902 5.14455 10.9372 4.31433 10.6242 3.36172C10.2091 3.32221 9.791 3.32164 9.37575 3.36036C9.063 4.31352 8.40966 5.14429 7.49976 5.66963C6.58983 6.19498 5.54371 6.34538 4.5619 6.13962C4.32071 6.47993 4.11219 6.84223 3.9388 7.22157C4.60734 7.96885 4.99977 8.94959 4.99977 9.99976C4.99977 11.0499 4.60736 12.0306 3.9388 12.7778C4.02556 12.9662 4.12136 13.1514 4.22626 13.3331C4.33116 13.5148 4.44367 13.6903 4.56343 13.8596C5.54481 13.6543 6.59031 13.8048 7.49976 14.3299ZM9.99975 12.4998C8.61908 12.4998 7.49976 11.3805 7.49976 9.99976C7.49976 8.61909 8.61908 7.49977 9.99975 7.49977C11.3805 7.49977 12.4997 8.61909 12.4997 9.99976C12.4997 11.3805 11.3805 12.4998 9.99975 12.4998ZM9.99975 10.8331C10.46 10.8331 10.8331 10.46 10.8331 9.99976C10.8331 9.53951 10.46 9.16643 9.99975 9.16643C9.5395 9.16643 9.16641 9.53951 9.16641 9.99976C9.16641 10.46 9.5395 10.8331 9.99975 10.8331Z" fill="#484848"/>
</svg>
