<svg width="18" height="18" viewBox="0 0 18 18" fill="none" xmlns="http://www.w3.org/2000/svg">
<path d="M8.99974 2.25C13.0438 2.25 16.4083 5.15982 17.1137 9C16.4083 12.8401 13.0438 15.75 8.99974 15.75C4.9556 15.75 1.59112 12.8401 0.885742 9C1.59112 5.15982 4.9556 2.25 8.99974 2.25ZM8.99974 14.25C12.1764 14.25 14.8947 12.039 15.5828 9C14.8947 5.96102 12.1764 3.75 8.99974 3.75C5.82296 3.75 3.10468 5.96102 2.4166 9C3.10468 12.039 5.82296 14.25 8.99974 14.25ZM8.99974 12.375C7.13575 12.375 5.62471 10.864 5.62471 9C5.62471 7.13604 7.13575 5.625 8.99974 5.625C10.8636 5.625 12.3747 7.13604 12.3747 9C12.3747 10.864 10.8636 12.375 8.99974 12.375ZM8.99974 10.875C10.0353 10.875 10.8747 10.0355 10.8747 9C10.8747 7.96448 10.0353 7.125 8.99974 7.125C7.96421 7.125 7.12471 7.96448 7.12471 9C7.12471 10.0355 7.96421 10.875 8.99974 10.875Z" fill="#484848"/>
</svg>
