<svg viewBox="0 0 22 22" fill="none" xmlns="http://www.w3.org/2000/svg">
<path d="M12.8334 13.0647V14.9799C12.2599 14.7773 11.6429 14.667 11.0001 14.667C7.96251 14.667 5.50008 17.1294 5.50008 20.167H3.66675C3.66675 16.1169 6.94999 12.8337 11.0001 12.8337C11.6331 12.8337 12.2475 12.9139 12.8334 13.0647ZM11.0001 11.917C7.96133 11.917 5.50008 9.45574 5.50008 6.41699C5.50008 3.37824 7.96133 0.916992 11.0001 0.916992C14.0388 0.916992 16.5001 3.37824 16.5001 6.41699C16.5001 9.45574 14.0388 11.917 11.0001 11.917ZM11.0001 10.0837C13.0259 10.0837 14.6667 8.44283 14.6667 6.41699C14.6667 4.39116 13.0259 2.75033 11.0001 2.75033C8.97425 2.75033 7.33341 4.39116 7.33341 6.41699C7.33341 8.44283 8.97425 10.0837 11.0001 10.0837ZM17.4167 16.1206L19.3613 14.1761L20.6576 15.4725L18.7131 17.417L20.6576 19.3615L19.3613 20.6579L17.4167 18.7133L15.4722 20.6579L14.1759 19.3615L16.1204 17.417L14.1759 15.4725L15.4722 14.1761L17.4167 16.1206Z" fill="#FBFBFB"/>
</svg>
